:SAMPLES-PER-SECOND 30
:FRAME-RANGE 1-3549
:FULLY-SPECIFIED
:DEGREES
3439
root  11.3747 39.0837 42.3948 -11.6584 -65.4717 15.4659
RightUpLeg  -22.5434 -4.89868 -5.72134
RightLeg  58.8452 0.319324 0.109576
RightFoot  -3.49745 -1.07534 15.2517
RightToes  -1.11029e-010 1.2921e-014 -6.02303e-014
Spine  11.4742 1.9295 0.113346
Spine1  0.52443 3.01229 -6.75516
HEad  -2.67699 -52.4845 -0.537651
LeftShoulder1  0.820064 0.930091 -25.6672
LeftArm  -6.27177 27.1145 -28.6591
LeftForeArm  2.535 -5.86002 -15.468
LeftHand  0.380912 1.80444 -12.8434
RightShoulder  16.5922 28.9981 44.2618
RightArm  36.3236 12.6047 28.5744
RightForeArm  35.6744 58.6131 15.2568
RightHand  0.340649 5.30122 3.37946
LeftUpLeg  -9.26624 7.81496 0.103281
LeftLeg  14.784 -1.55309 -4.27237
LeftFoot  -6.69793 0.377622 -8.31518
LeftToes  -1.9349e-011 -1.19469e-011 -2.02219e-012
3440
root  10.2413 39.3408 42.9098 -10.4797 -69.6998 13.9529
RightUpLeg  -25.1895 -6.59117 -4.94197
RightLeg  53.5108 -2.81151 -4.46168
RightFoot  -4.31148 -0.729875 11.3676
RightToes  -1.11029e-010 1.2921e-014 -6.02303e-014
Spine  11.0443 0.942369 0.00118059
Spine1  -0.339586 1.86655 -5.71756
HEad  -2.98482 -50.3075 0.0961949
LeftShoulder1  1.01143 0.389092 -26.3073
LeftArm  -4.80586 24.3544 -33.0673
LeftForeArm  8.50474 -5.56498 -15.4787
LeftHand  0.431847 1.75256 -14.2796
RightShoulder  15.9491 27.9412 43.9941
RightArm  40.9125 12.5207 28.1004
RightForeArm  29.1879 44.5744 9.00961
RightHand  0.19579 5.69022 1.72382
LeftUpLeg  -4.95243 8.56327 1.77693
LeftLeg  11.4875 1.35885 -3.1674
LeftFoot  -7.35452 0.360635 -9.08364
LeftToes  -1.9349e-011 -1.19469e-011 -2.02219e-012
3441
root  9.11651 39.4665 43.3331 -8.80273 -73.6246 12.2664
RightUpLeg  -26.9388 -8.78805 -3.37128
RightLeg  44.872 -6.07371 -6.73496
RightFoot  -4.89134 -0.535722 8.89776
RightToes  -1.11029e-010 1.2921e-014 -6.02303e-014
Spine  10.5211 0.0331472 -0.347984
Spine1  -1.04476 0.750838 -4.23637
HEad  -4.04225 -47.9429 1.32421
LeftShoulder1  1.10683 0.1012 -26.3694
LeftArm  -1.48442 21.7038 -37.0429
LeftForeArm  8.48067 -8.97631 -14.2394
LeftHand  0.414413 1.41171 -12.4676
RightShoulder  15.6533 26.9577 44.6379
RightArm  47.698 14.1746 26.9667
RightForeArm  21.7776 29.1896 5.13545
RightHand  -0.0133934 6.00974 -0.468515
LeftUpLeg  -1.27366 9.45527 3.30085
LeftLeg  8.88291 3.87629 -2.73275
LeftFoot  -8.12665 0.320442 -9.67067
LeftToes  -1.9349e-011 -1.19469e-011 -2.02219e-012
3442
root  7.96239 39.476 43.6706 -7.85254 -77.2368 11.5303
RightUpLeg  -27.5235 -12.1666 -0.978264
RightLeg  33.1335 -9.80613 -7.0599
RightFoot  -4.7688 -0.461135 7.45385
RightToes  -1.11029e-010 1.2921e-014 -6.02303e-014
Spine  9.94669 -0.573928 -0.907288
Spine1  -1.57796 -0.0791173 -2.7045
HEad  -5.20059 -46.2749 2.49078
LeftShoulder1  1.16552 -0.0701251 -26.4573
LeftArm  7.24131 18.628 -38.6568
LeftForeArm  6.10644 -14.2976 -11.4145
LeftHand  0.317355 0.540142 -7.74096
RightShoulder  15.2448 25.3183 46.0578
RightArm  36.092 17.1316 23.3209
RightForeArm  26.0407 13.7287 11.5816
RightHand  -0.113664 5.67348 -1.51414
LeftUpLeg  2.03205 10.3944 4.57062
LeftLeg  6.90263 5.85763 -2.94964
LeftFoot  -9.18748 0.256462 -10.698
LeftToes  -1.9349e-011 -1.19469e-011 -2.02219e-012
3443
root  6.70221 39.3547 43.9177 -9.81677 -80.415 13.619
RightUpLeg  -26.7227 -18.3898 2.53599
RightLeg  18.9777 -10.4308 -4.16684
RightFoot  -4.29374 -0.481337 7.33056
RightToes  -1.11029e-010 1.2921e-014 -6.02303e-014
Spine  9.03856 -0.938444 -1.87866
Spine1  -1.41694 -0.679706 -1.43218
HEad  -6.37045 -45.4203 3.58924
LeftShoulder1  1.23438 -0.259653 -26.6535
LeftArm  13.5475 15.272 -37.8986
LeftForeArm  5.30389 -18.2124 -8.26916
LeftHand  0.132456 0.491451 -3.23736
RightShoulder  14.546 23.0668 47.7784
RightArm  -0.369776 18.6077 16.5002
RightForeArm  40.2155 -1.48157 14.7622
RightHand  -0.0784258 4.35631 -1.21573
LeftUpLeg  5.14417 10.9276 5.14114
LeftLeg  5.89916 7.74574 -3.0115
LeftFoot  -10.6091 0.142187 -12.2987
LeftToes  -1.9349e-011 -1.19469e-011 -2.02219e-012
3444
root  5.29117 39.0997 44.077 -15.4642 -83.2393 18.9675
RightUpLeg  -22.1446 -11.6146 -0.951164
RightLeg  4.89142 -23.5643 3.74942
RightFoot  -3.24498 -0.511217 6.90172
RightToes  -1.11029e-010 1.2921e-014 -6.02303e-014
Spine  8.3234 -1.18737 -2.77681
Spine1  -1.19398 -1.10557 -0.610091
HEad  -7.47467 -45.0796 4.67294
LeftShoulder1  1.25398 -0.369702 -26.2139
LeftArm  13.351 12.8721 -36.1309
LeftForeArm  6.07 -20.7559 -5.97016
LeftHand  -0.0314408 0.409334 0.688452
RightShoulder  12.9127 20.2401 47.5136
RightArm  -16.4621 16.7662 12.8006
RightForeArm  27.7074 -4.13392 12.0747
RightHand  -0.156429 3.29888 -2.33065
LeftUpLeg  8.2244 11.3519 5.52664
LeftLeg  6.38325 9.2444 -2.72905
LeftFoot  -12.5154 -0.0722217 -14.2741
LeftToes  -1.9349e-011 -1.19469e-011 -2.02219e-012
3445
root  3.73601 38.7679 44.1624 -29.9413 -86.0045 32.8231
RightUpLeg  -19.2133 -6.39127 -1.77661
RightLeg  -3.83439 -29.9974 8.96367
RightFoot  -0.826084 -0.488458 5.24224
RightToes  -1.11029e-010 1.2921e-014 -6.02303e-014
Spine  7.6414 -1.24868 -3.17689
Spine1  -0.877608 -1.28657 -0.135197
HEad  -8.27129 -44.7819 5.22682
LeftShoulder1  1.24874 -0.408704 -25.7401
LeftArm  9.20062 11.5176 -33.0873
LeftForeArm  5.65282 -23.7139 -4.778
LeftHand  -0.107653 0.321736 2.45138
RightShoulder  11.0994 17.6923 45.7405
RightArm  -23.6509 13.648 11.1361
RightForeArm  7.5619 -1.07189 11.2997
RightHand  -0.167613 1.96534 -2.82005
LeftUpLeg  11.4059 11.9161 6.0895
LeftLeg  7.96004 10.5651 -2.37814
LeftFoot  -14.3729 -0.364992 -16.9234
LeftToes  -1.9349e-011 -1.19469e-011 -2.02219e-012
